<svg aria-hidden="true" style="position: absolute; width: 0; height: 0; overflow: hidden;" version="1.1" xmlns="http://www.w3.org/2000/svg" xmlns:xlink="http://www.w3.org/1999/xlink">
<defs>
<symbol id="icon-Vector" viewBox="0 0 47 32">
<path stroke-linejoin="round" stroke-linecap="round" stroke-miterlimit="4" stroke-width="4.3636" d="M1.96 29.154h42.965M1.96 15.615h42.965M1.96 2.077h42.965"></path>
<symbol id="icon-icon-menu" viewBox="0 0 47 32">
   <path d="M-.221 2.077c0-1.205.977-2.182 2.182-2.182h42.965a2.182 2.182 0 0 1 0 4.364H1.961A2.182 2.182 0 0 1-.221 2.077zm0 13.538c0-1.205.977-2.182 2.182-2.182h42.965a2.182 2.182 0 0 1 0 4.364H1.961a2.182 2.182 0 0 1-2.182-2.182zm0 13.539c0-1.205.977-2.182 2.182-2.182h42.965a2.182 2.182 0 0 1 0 4.364H1.961a2.182 2.182 0 0 1-2.182-2.182z"/>
  </symbol>
</symbol>
</defs>
</svg>

